# xmcd
# Track frame offsets:
# 150
# 16967
# 31770
# 51840
# 63237
# 76275
# 91935
# 107387
# 127090
# 142495
# 155115
# 166205
# 178965
# 192207
# 203422
# 223882
# 236542
# 256447
#
# Disc length: 3587 seconds
# Revision: 3
# Processed by: cddbd v1.5.1PL0 Copyright (c) Steve Scherf et al.
# Submitted via: VisiTrax 2.9.9.209 - For more info visit www.synapsa.com
#
DISCID=fd0e0112
DTITLE=Various Artist - Captivating Country
DYEAR=1900
DGENRE=
TTITLE0=Tanya Tucker - The night they drove old dixie down
TTITLE1=Barbara Fairchild - Rocky top
TTITLE2=Nitty Gritty Dirt Band - Cadillac ranch
TTITLE3=Tex Williams - Bottom of a mountain
TTITLE4=Mickey Gilley - Blaze of glory
TTITLE5=Gene Watson - What she don't know won't hurt her
TTITLE6=Kathy Mattea - Heart of the country
TTITLE7=Bellamy Brothers - Is I said you had a beautiful body
TTITLE8=Tammy Wynette - Crying in the rain
TTITLE9=Bobby Bare - Tequila Sheila
TTITLE10=Bellamy Brothers - Let your love flow
TTITLE11=Charlie Rich - Behind closed doors
TTITLE12=Kathy Mattea - Ball and chain
TTITLE13=Tammy Wynette - Stand by your man
TTITLE14=Nitty Gritty Dirt Band - Mr. Bojangles
TTITLE15=The Osmnds - Takin' country to the city
TTITLE16=Lee Greenwood - God bless the U.S.A.
TTITLE17=Faron Young - It's four in the morning
EXTD=
EXTT0=
EXTT1=
EXTT2=
EXTT3=
EXTT4=
EXTT5=
EXTT6=
EXTT7=
EXTT8=
EXTT9=
EXTT10=
EXTT11=
EXTT12=
EXTT13=
EXTT14=
EXTT15=
EXTT16=
EXTT17=
PLAYORDER=
